<?xml version="1.0" encoding="utf-8"?>
<!-- Generator: Adobe Illustrator 22.0.1, SVG Export Plug-In . SVG Version: 6.00 Build 0)  -->
<svg version="1.1" id="Layer_1" xmlns="http://www.w3.org/2000/svg" xmlns:xlink="http://www.w3.org/1999/xlink" x="0px" y="0px"
	 viewBox="0 0 612 792" style="enable-background:new 0 0 612 792;" xml:space="preserve">
<style type="text/css">
	.st0{fill:#FFFFFF;}
	.st1{opacity:0.2;fill:#FFFFFF;}
</style>
<g>
	<g>
		<path class="st0" d="M351.7,450.3H326c-2.4,0-4.5,1.6-5.2,3.8l-5.6,20.1h47.2l-5.6-20.1C356.2,451.8,354.1,450.3,351.7,450.3z"/>
		<path class="st0" d="M351.7,450.3H326c-1.8,0-3.4,0.9-4.4,2.2c-0.2,0.2-0.3,0.5-0.5,0.8l29.1,0.2c1.6,0,3.1,0.9,3.8,2.3l8.4,18.4
			l-5.6-20.1C356.2,451.8,354.1,450.3,351.7,450.3z"/>
		<path class="st0" d="M351.7,450.3H326c-2.4,0-4.5,1.6-5.2,3.8l-5.6,20.1l7.1-18.2c0.9-2,2.9-3.4,5.1-3.4h22.8
			c2.2,0,4.2,1.3,5.1,3.4l7.1,18.2l-5.6-20.1C356.2,451.8,354.1,450.3,351.7,450.3z"/>
		<path class="st0" d="M338.9,419.2L338.9,419.2c-1.1,0-2,0.9-2,1.9v29.1h3.9v-29.1C340.8,420.1,339.9,419.2,338.9,419.2z
			 M338.9,422.7c-0.6,0-1.1-0.5-1.1-1.1s0.5-1.1,1.1-1.1c0.6,0,1.1,0.5,1.1,1.1S339.5,422.7,338.9,422.7z"/>
		<rect x="336.9" y="447.6" class="st1" width="3.9" height="2.7"/>
		<rect x="336.9" y="432.4" class="st0" width="3.9" height="0.9"/>
		<rect x="336.9" y="430.5" class="st0" width="3.9" height="0.9"/>
		<rect x="336.9" y="428.6" class="st0" width="3.9" height="0.9"/>
	</g>
	<g>
		<rect x="361.4" y="393" class="st0" width="4" height="69"/>
		<rect x="361.4" y="393" class="st1" width="2" height="69"/>
		<rect x="361" y="386" class="st0" width="4.8" height="6.9"/>
		<rect x="361" y="386" class="st1" width="2.4" height="6.9"/>
		<rect x="359.6" y="455.3" class="st0" width="7.6" height="7"/>
		<rect x="359.6" y="458.8" class="st1" width="7.6" height="3.5"/>
		<rect x="335.4" y="462.3" class="st0" width="55.9" height="2"/>
		<rect x="336" y="464.3" class="st0" width="54.7" height="0.8"/>
		<rect x="335.4" y="465.2" class="st0" width="55.9" height="10.7"/>
		<rect x="337.6" y="466.5" class="st0" width="2.5" height="9.3"/>
		<rect x="342.5" y="466.5" class="st0" width="2.5" height="9.3"/>
		<rect x="347.4" y="466.5" class="st0" width="2.5" height="9.3"/>
		<rect x="352.3" y="466.5" class="st0" width="2.5" height="9.3"/>
		<rect x="357.2" y="466.5" class="st0" width="2.5" height="9.3"/>
		<rect x="362" y="466.5" class="st0" width="2.5" height="9.3"/>
		<rect x="366.9" y="466.5" class="st0" width="2.5" height="9.3"/>
		<rect x="371.8" y="466.5" class="st0" width="2.5" height="9.3"/>
		<rect x="376.7" y="466.5" class="st0" width="2.5" height="9.3"/>
		<rect x="381.6" y="466.5" class="st0" width="2.5" height="9.3"/>
		<rect x="386.5" y="466.5" class="st0" width="2.5" height="9.3"/>
	</g>
</g>
</svg>
