<?xml version="1.0" encoding="utf-8"?>
<!-- Generator: Adobe Illustrator 22.0.1, SVG Export Plug-In . SVG Version: 6.00 Build 0)  -->
<svg version="1.1" id="Layer_1" xmlns="http://www.w3.org/2000/svg" xmlns:xlink="http://www.w3.org/1999/xlink" x="0px" y="0px"
	 viewBox="0 0 612 792" style="enable-background:new 0 0 612 792;" xml:space="preserve">
<style type="text/css">
	.st0{fill:#FFFFFF;}
</style>
<g id="XMLID_5217_">
	<path id="XMLID_5218_" class="st0" d="M359.9,347.6c-0.7-0.1-1.5-0.2-2.2-0.2c-5.3-2.1-14.7-3.7-25.8,4.9l-0.3,0.2l-3.6,3.6
		c-13.7-9.3-24.5-3.6-27.6-1.5L286.9,341L244,383.9l16.3,16.3c0.1,7.3,2.7,14.8,7.8,22.3c2.1,3.1,4.5,6,7.1,8.6
		c3.4,3.4,6.7,6.8,10.1,10.1c-3.7,5.3-2.1,9.7,1.7,13.7c4,4.1,7.6,4.6,13,3.1c0,0,0.1,0,0.1,0c3.9,5.8,7.4,8.6,11.2,8.9
		c1.6,1.5,3.2,3.1,4.8,4.6c4.7,4.6,12,5.6,17.7,2.3c2.5-1.4,2.9-2.6,4.1-4.6c9.7,8.1,16.1,8.3,23.7-3.1c0,0,0.1-0.1,0.1,0
		c5.4,1.6,9,1.1,13-3c4-4.2,5.6-8.9,1.1-14.6c0,0-1.2-1.6-1.1-1.6c3.2,0.1,5.8-1.9,7.2-3.8c3.7-4.8,3.5-9.9-0.5-14.9
		c1.8-1.8,3.5-3.5,5.3-5.3c2.6-2.7,5-5.5,7.1-8.6c5-7.6,7.6-15,7.8-22.3l16.3-16.3l-42.9-42.9L359.9,347.6z M277.7,424.8
		c-4.9-5.2-8.6-11-10.3-17.5c-0.4-1.5-0.6-2.9-0.8-4.5c-0.1-1.3-0.2-2.5-0.1-3.8l-16.5-16.5l35.4-35.4l11.4,11.4l0.8,0.8l0,0.1
		l5.5,0.5l0.4-0.9c2.2-1.5,11.2-6.5,23.1,2.7l15.9,15.9c0.8,0.8,1.2,1.9,1.2,3c0,1.1-0.4,2.2-1.2,3l-1.1,1c-1.7,1.7-4.4,1.6-6,0
		l-16.2-16.3l-3.9,2.8l4.4,5.1l1.9,1.9c-1.9,1.9-3.7,3.7-5.6,5.6c-0.5,0.5-0.7,1-0.9,1.5c-0.1,0.1-0.2,0.2-0.3,0.3
		c-10.9,10.9-21.9,21.8-32.7,32.8C279.8,420.4,278.4,422.6,277.7,424.8z M330.3,469.1c-1.3,1.2-2.5,1.9-4.4,1.8
		c-2.6-0.2-4.4-2.2-5.6-3.4c-0.8-0.8-1.5-1.5-2.3-2.3c1.8-1,3.7-2.3,5.7-4c1.3,2,1.7,3.2,4.1,4.6c1.1,0.6,2.3,1.1,3.5,1.4
		C331.1,467.9,330.8,468.6,330.3,469.1z M353.7,466.9c-2.4,2.9-5.2,3.1-8.8-0.2c-0.6-0.5-1.1-1-1.6-1.5c0.8-0.5,1.5-1.1,2.2-1.8
		c2-2,4-4,6.1-5.9c0.2,0.2,0.4,0.4,0.6,0.6C355.6,461.5,356.1,464.2,353.7,466.9z M370.7,458c-2.5,3.4-6.2,3.4-9.6,0.1
		c-1.7-1.7-3.3-3.3-5-5c2.8-2.7,5.5-5.4,8.3-8.1c1.6,1.6,3.1,3.1,4.7,4.7C372,452.7,372.5,455.5,370.7,458z M377.6,438.1
		c-1.3,3.1-5,4.6-7.9,3c-0.3-0.2-0.6-0.3-0.8-0.5c2.7-2.6,5.3-5.3,7.9-7.9C377.9,434.2,378.5,435.8,377.6,438.1z M411.5,374.4
		L395,390.9c0,1.3,0,2.6-0.1,3.8c-0.1,1.5-0.4,3-0.8,4.5c-1.6,6.6-5.3,12.3-10.3,17.6c-6.7,7.1-13.8,13.9-20.7,20.8
		c-7.3,7.3-14.5,14.5-21.8,21.7c-1.3,1.2-3.1,3.2-5.6,3.4c-1.9,0.1-3.2-0.6-4.4-1.8c-1.1-1.1-1.5-3.8-1.1-5.4
		c0.5-1.8,2.1-3.5,3.5-4.9c3.3-3.4,6.7-6.7,10-10.1c1.6-1.6,3.2-3.3,4.9-4.9c1.7-1.8,6.7-5.5,3.9-8.1c-2.6-2.4-6.2,2.2-7.8,3.8
		c-1.6,1.6-3.3,3.3-4.9,4.9c-7.7,7.5-15.3,15.1-23.1,22.4c-3.6,3.3-6.3,3.1-8.8,0.2c-2.3-2.7-1.9-5.4,1.5-8.8
		c8.7-8.7,17.4-17.4,26.1-26.1c1.2-1.2,2.3-2,2.5-3.9c0.2-1.4-0.3-2.6-1.8-2.8c-2.4-0.4-3.4,0.6-5,2.1
		c-10.2,10.2-20.5,20.5-30.7,30.7c-3.4,3.4-7.1,3.3-9.6-0.1c-1.8-2.5-1.3-5.4,1.7-8.4c10.4-10.4,20.8-20.8,31.2-31.2
		c1.7-1.7,3-3.6,1-5.5c-2-1.9-3.7-0.2-5.2,1.3c-8,8-16,16.1-24.1,24.1c-1.1,1.1-2.2,2.2-3.5,2.9c-2.9,1.6-6.7,0.1-7.9-3
		c-1.3-3.2,0.4-5.2,2.4-7.3c13.3-13.3,26.6-26.5,39.8-39.9l5.5,5.5c1.9,1.9,4.3,2.8,6.7,2.8c2.4,0,4.9-0.9,6.7-2.8l1-1
		c1.8-1.8,2.8-4.2,2.8-6.7c0-2.4-0.9-4.6-2.5-6.4L334.4,362l0,0l-2.4-2.4l3.2-3.2c5-3.8,9.5-5.1,13.1-5.3c6.7-0.6,12.7,2.9,12.7,2.9
		l3.6-3.6L376,339L411.5,374.4z"/>
</g>
</svg>
