<?xml version="1.0" encoding="utf-8"?>
<!-- Generator: Adobe Illustrator 22.0.1, SVG Export Plug-In . SVG Version: 6.00 Build 0)  -->
<svg version="1.1" id="Layer_1" xmlns="http://www.w3.org/2000/svg" xmlns:xlink="http://www.w3.org/1999/xlink" x="0px" y="0px"
	 viewBox="0 0 612 792" style="enable-background:new 0 0 612 792;" xml:space="preserve">
<style type="text/css">
	.st0{fill:#FFFFFF;}
</style>
<path class="st0" d="M383.4,384c0-0.1-0.1-0.1-0.1-0.2c-0.9-0.9-1.8-1.7-2.9-2.2l-55-42.5c-0.3-0.2-0.6-0.4-0.9-0.5l-0.4-0.2
	c-0.1,0-0.1,0-0.2-0.1c-2.7-1-5.1-1.1-7.7-0.6c-0.1,0-0.1,0-0.2,0l-0.3,0.1c-24.2,6.6-56.3,15.3-72.1,19.4c-0.1,0-0.2,0.1-0.4,0.1
	l-1.1,0.4c-5.9,1.6-10.6,2.4-13.3,2.4c-1.6,0-3,1.3-3,3v2.2c0,0.2,0,0.4,0,0.6l0,27.4c-0.1,0.8,0,1.6,0.5,2.3
	c0.6,0.8,1.5,1.2,2.4,1.2c8.2,0,13.8,4.4,20.3,9.5c1.4,1.1,2.8,2.2,4.3,3.3c5.9,4.4,13.4,8.9,24.1,8.9c4.6,0,8.2,0,11.2-0.1h12.8
	c0.5,20,16,36.2,34.9,36.2c19.3,0,34.9-16.6,34.9-37.1c0-4-0.6-7.8-1.8-11.5c0.1,0,0.2,0.1,0.3,0.1c0.5,0.2,1,0.3,1.6,0.4
	c1.6,0.2,2.7,0.2,4-0.1c6.5-0.7,11.4-6.3,11.4-13.2C387,389.8,385.7,386.5,383.4,384z M347.8,407.5c-1.1,1.8-1.8,2.7-1.9,2.8h-5.2
	c0.7,0.8,1.2,1.8,1.4,3h5.5c0.1,0,0.1,0,0.1,0.1c-1.2,1.8-1.9,2.8-1.9,2.8h-3.6c-0.1,0.9-0.5,2.1-1.4,3.4c-1.1,1.4-2.1,2.2-3.1,2.6
	c-1.9,0.9-3.7,1.3-5.4,1.3v0c0,0.1,0.4,0.7,1.3,1.7l9.5,11.5v0.5c0,0.1,0,0.1-0.1,0.1h-4.2c-7.5-8.8-11.3-13.2-11.3-13.2v-2.7l0-0.1
	c0.7,0.1,1.5,0.1,2.3,0.1c4.2,0,6.9-1.4,7.9-4.1c0.2-0.4,0.2-0.8,0.2-1.2h-11.5c-0.1,0-0.1,0-0.1-0.1c1.3-1.8,1.9-2.8,1.9-2.8h9.1v0
	c-0.5-1.1-1.5-1.9-3-2.5c-1.1-0.3-2-0.5-2.9-0.5h-5.1v-0.1c1.2-1.8,1.9-2.7,1.9-2.7L347.8,407.5L347.8,407.5z M306.1,399.3
	c-0.1,0.1-0.1,0.2-0.1,0.3h-15.5c-2.9-0.6-4.9-3.3-4.9-6.6c0-2.3,1.1-4.5,2.9-5.7c0.9-0.3,3-0.8,5.7-1.6l2.1-0.6
	c2.6-0.7,5.4-1.4,8.1-2.3l0.5-0.2c11.6-3.3,19-5.3,21-5.9c0.6,0,1.2,0,1.7,0.1l5.4,3.7C321.8,381.9,311.7,388.8,306.1,399.3z
	 M374.9,400.6c-0.1,0-0.3,0-0.4,0.1c-0.6,0.1-1.1,0.2-1.9,0c-0.3,0-0.5-0.1-0.8-0.2c-0.3-0.1-0.6-0.2-0.9-0.4
	c-0.2-0.1-0.4-0.2-0.6-0.3c0,0-0.1-0.1-0.1-0.1l-5.9-4.6c0,0-0.1-0.1-0.1-0.1l-33.7-23.3c-0.3-0.2-0.6-0.3-0.9-0.4
	c-1.2-0.3-2.6-0.4-4.2-0.3c-0.2,0-0.4,0-0.5,0.1c-1.9,0.5-12.7,3.5-21.4,6l-0.6,0.2c-2.7,0.8-5.3,1.6-7.9,2.2l-2.2,0.6
	c-3.2,0.9-5.6,1.6-6.1,1.7c-0.2,0.1-0.5,0.2-0.7,0.3c-3.8,2.2-6.2,6.5-6.2,11c0,6.2,4.2,11.5,10.1,12.5c0.2,0,0.3,0,0.5,0h21.4
	c1.7,0,3.1,1.6,3.1,3.5c0,1.9-1.4,3.5-3.1,3.5l-22.9,0c-2.9,0.1-6.6,0.1-11.1,0.1c-9,0-15.2-3.7-20.6-7.7c-1.4-1-2.8-2.1-4.1-3.2
	c-6-4.8-12.3-9.7-20.9-10.6v-21.5l0-3.2c0-0.1,0-0.3,0-0.4c3.1-0.3,7.1-1.2,12-2.5c0.1,0,0.2-0.1,0.3-0.1l1.1-0.4
	c15.9-4.2,47.9-12.8,72-19.4l0.2,0c1.4-0.3,2.7-0.2,4.3,0.4l0.2,0.1l52.5,40.6l2.3,1.8c0.1,0.1,0.3,0.2,0.4,0.3
	c0.6,0.3,1.1,0.7,1.6,1.3c0,0,0,0.1,0.1,0.1c1.3,1.4,2.1,3.3,2.1,5.3C381,397.1,378.4,400.2,374.9,400.6z"/>
</svg>
