<?xml version="1.0" encoding="utf-8"?>
<!-- Generator: Adobe Illustrator 22.0.1, SVG Export Plug-In . SVG Version: 6.00 Build 0)  -->
<svg version="1.1" id="Layer_1" xmlns="http://www.w3.org/2000/svg" xmlns:xlink="http://www.w3.org/1999/xlink" x="0px" y="0px"
	 viewBox="0 0 612 792" style="enable-background:new 0 0 612 792;" xml:space="preserve">
<style type="text/css">
	.st0{fill:#FFFFFF;}
</style>
<g>
	<polygon class="st0" points="353.8,431.5 350,424 346.2,431.5 337.5,432.8 343.8,438.7 342.3,447.1 350,443.1 357.7,447.1 
		356.2,438.7 362.5,432.8 	"/>
	<polygon class="st0" points="320.3,431.3 328,427.4 335.7,431.3 334.2,423 340.5,417 331.8,415.8 328,408.6 324.2,415.8 315.6,417 
		321.8,423 	"/>
	<polygon class="st0" points="364.3,431.3 372,427.4 379.7,431.3 378.2,423 384.5,417 375.8,415.8 372,408.6 368.2,415.8 359.5,417 
		365.8,423 	"/>
	<rect x="348" y="449.2" class="st0" width="4" height="28.3"/>
	<path class="st0" d="M331.5,429.9l-3.2,2.4c7.5,10.1,11.7,22.5,11.7,35.1v6.1h4v-6.1c0-6.7-1.1-13.4-3.2-19.8
		S335.5,435.3,331.5,429.9z"/>
	<path class="st0" d="M368.6,429.9c-4,5.4-7.2,11.4-9.3,17.8s-3.2,13-3.2,19.8v6.1h4v-6.1c0-12.6,4.2-25.1,11.7-35.1L368.6,429.9z"
		/>
	<polygon class="st0" points="380.4,437.1 376.4,437.1 376.4,441.2 372.4,441.2 372.4,445.2 376.4,445.2 376.4,449.2 380.4,449.2 
		380.4,445.2 384.5,445.2 384.5,441.2 380.4,441.2 	"/>
	<polygon class="st0" points="348,420.7 352,420.7 352,416.7 356.1,416.7 356.1,412.6 352,412.6 352,408.6 348,408.6 348,412.6 
		344,412.6 344,416.7 348,416.7 	"/>
	<rect x="368.2" y="453.3" class="st0" width="4" height="4"/>
	<polygon class="st0" points="323.6,437.1 319.6,437.1 319.6,441.2 315.6,441.2 315.6,445.2 319.6,445.2 319.6,449.2 323.6,449.2 
		323.6,445.2 327.7,445.2 327.7,441.2 323.6,441.2 	"/>
	<rect x="327.8" y="453.3" class="st0" width="4" height="4"/>
</g>
</svg>
