<?xml version="1.0" encoding="utf-8"?>
<!-- Generator: Adobe Illustrator 22.0.1, SVG Export Plug-In . SVG Version: 6.00 Build 0)  -->
<svg version="1.1" id="Layer_1" xmlns="http://www.w3.org/2000/svg" xmlns:xlink="http://www.w3.org/1999/xlink" x="0px" y="0px"
	 viewBox="0 0 612 792" style="enable-background:new 0 0 612 792;" xml:space="preserve">
<style type="text/css">
	.st0{fill:#FFFFFF;}
</style>
<path class="st0" d="M665,398.9c-3.5-2.8-8.6-2.3-11.5,1.2c-9.8,12.2-20.4,12.4-28.5,8.1c2.7-5.5,4.4-11.5,4.7-16.8
	c0.7-11.2-4-20-16.2-20.7c-0.6,0-1.2-0.1-1.7-0.1c-12-0.1-17.4,6.6-18,16c-0.3,5.2,1.4,11.1,4.5,16.8c1.3,2.4,3,4.8,4.8,7.1
	c-1.2,1-2.4,1.8-3.7,2.4c-5.3,2.3-12.3-1.2-19.5-17.7c-0.6-1.4-1.6-2.5-2.7-3.3C560.4,300.4,454,229.4,325.9,229.4
	c-40,0-77.9,7-111.7,19.3c-0.2-0.3-0.4-0.7-0.7-1.1C195.9,223,149.7,212,135,222c-6.3,4.3,5.5,28.4,21.7,55.5
	c-29.6,19.6-52.9,44.3-67.5,72.2H59.1c-10.3,0-18.8,8.5-18.8,18.8v71.4c0,10.3,8.5,18.8,18.8,18.8h19.3
	c15.3,50.2,57.8,92.9,115.5,119v50.5c0,10.3,8.5,18.8,18.8,18.8h71.4c10.3,0,18.8-8.5,18.8-18.8v-23.7c7.6,0.5,15.2,0.8,23,0.8
	c7.7,0,15.4-0.3,23-0.8v23.7c0,10.3,8.5,18.8,18.8,18.8H439c10.3,0,18.8-8.5,18.8-18.8v-50.5c70.7-32.1,118.7-89.1,121.5-154.3
	c8.8,7.8,18.2,8.2,26.6,4.5c2-0.9,4-2,5.8-3.4c1.3-0.9,2.5-1.9,3.6-3c14.4,9.1,33.6,10.2,50.9-11.2
	C669.1,406.9,668.5,401.7,665,398.9z M387.8,342.7c-6.2,9.6-9.7,14.7-10.5,15.3h-28.1c3.9,4.5,6.5,10,7.9,16.5h30
	c0.4,0.1,0.5,0.2,0.5,0.4c-6.7,10.1-10.1,15.1-10.3,15.1h-19.5c-0.4,5.2-2.9,11.4-7.4,18.7c-6,7.4-11.7,12.1-17.2,14.3
	c-10.2,4.9-20,7.3-29.3,7.3v0.2c0,0.7,2.3,3.8,6.9,9.1l51.9,62.7v3c0,0.3-0.2,0.4-0.5,0.4h-22.9c-41.1-47.9-61.7-72-61.7-72.2V419
	l0.2-0.5c3.6,0.5,7.9,0.8,12.8,0.8c23,0,37.4-7.5,43-22.4c0.9-2.2,1.3-4.4,1.3-6.8h-62.6c-0.3,0-0.4-0.1-0.4-0.4
	c6.9-10.1,10.5-15.1,10.6-15.1h49.6v-0.2c-2.8-5.8-8.4-10.2-16.5-13.5c-5.8-1.9-11.1-2.8-15.7-2.8h-27.8v-0.5
	c6.7-10,10.2-15,10.4-15h105.2V342.7z M613.5,390.6c-0.1,1.6-0.4,3.3-0.9,5c-0.3-0.5-0.5-1-0.8-1.5c-1.2-2.5-1.8-4.7-1.7-6.5
	c0-0.3,0.5-0.6,1.7-0.6c0.2,0,0.5,0,0.8,0C613.4,387.1,613.6,388.6,613.5,390.6z"/>
</svg>
