<?xml version="1.0" encoding="utf-8"?>
<!-- Generator: Adobe Illustrator 22.0.1, SVG Export Plug-In . SVG Version: 6.00 Build 0)  -->
<svg version="1.1" id="Layer_1" xmlns="http://www.w3.org/2000/svg" xmlns:xlink="http://www.w3.org/1999/xlink" x="0px" y="0px"
	 viewBox="0 0 612 792" style="enable-background:new 0 0 612 792;" xml:space="preserve">
<style type="text/css">
	.st0{fill:#FFFFFF;}
</style>
<path class="st0" d="M381.1,419.6l-11-29.6c-0.1-0.2,0.1-0.5,0.3-0.5h0c3.8,0,6.7-3.3,6.1-7.1l-6.9-16.3c4.8-7.2,1.7-25.5-13-35.2
	c-15.7-10.4-65.1-25.4-95.4,8.1c-29.3,32.4-15.5,77.6-1.5,93.7c3.6,7.3,7.6,13,10.3,17.3l2.2,37.1h66c0,0-0.8-23.2-0.6-23.2h19.6
	c7.3,0,12.3-7.1,10-14l-2.5-7.2c-0.1-0.2,0.1-0.5,0.3-0.5c3,0,4.8-3.3,3.1-5.8l0-0.1c-0.1-0.2-0.1-0.4,0.1-0.5l0.9-0.6
	c1.3-0.9,1.9-2.6,1.4-4.1l-2-6.7c-0.1-0.2,0.1-0.5,0.3-0.5h8.9C380.1,424,381.8,421.8,381.1,419.6z M319.4,432.3
	c-1.5,1.4-3.3,2-5.3,2c-2.1,0-3.9-0.7-5.4-2c-1.5-1.3-2.3-3.2-2.3-5.6c0-2.1,0.7-3.9,2.2-5.4c1.5-1.5,3.3-2.2,5.5-2.2
	c2.1,0,3.9,0.7,5.4,2.2c1.5,1.5,2.2,3.3,2.2,5.4C321.7,429.1,321,431,319.4,432.3z M338.4,385.2c-1.2,2.2-2.6,4-4.2,5.6
	c-1.6,1.6-4.5,4.2-8.7,8c-1.2,1.1-2.1,2-2.8,2.8c-0.7,0.8-1.2,1.5-1.6,2.2c-0.3,0.7-0.6,1.3-0.8,2c-0.2,0.7-0.5,1.8-0.8,3.5
	c-0.6,3.5-2.7,5.3-6.1,5.3c-1.8,0-3.2-0.6-4.5-1.7c-1.2-1.2-1.8-2.9-1.8-5.1c0-2.8,0.4-5.3,1.3-7.4c0.9-2.1,2.1-3.9,3.5-5.5
	c1.5-1.6,3.4-3.5,5.9-5.6c2.2-1.9,3.7-3.3,4.7-4.3c1-1,1.8-2,2.4-3.2c0.7-1.2,1-2.5,1-3.9c0-2.7-1-5-3-6.9c-2-1.9-4.6-2.8-7.8-2.8
	c-3.7,0-6.5,0.9-8.2,2.8c-1.8,1.9-3.3,4.7-4.5,8.3c-1.2,3.8-3.3,5.7-6.6,5.7c-1.9,0-3.5-0.7-4.8-2c-1.3-1.3-2-2.8-2-4.3
	c0-3.2,1-6.5,3.1-9.8c2.1-3.3,5.1-6,9.1-8.2c4-2.2,8.6-3.3,13.9-3.3c4.9,0,9.3,0.9,13,2.7c3.8,1.8,6.7,4.3,8.7,7.4
	c2.1,3.1,3.1,6.5,3.1,10.2C340.2,380.5,339.6,383,338.4,385.2z"/>
</svg>
