<?xml version="1.0" encoding="utf-8"?>
<!-- Generator: Adobe Illustrator 22.0.1, SVG Export Plug-In . SVG Version: 6.00 Build 0)  -->
<svg version="1.1" id="Layer_1" xmlns="http://www.w3.org/2000/svg" xmlns:xlink="http://www.w3.org/1999/xlink" x="0px" y="0px"
	 viewBox="0 0 612 792" style="enable-background:new 0 0 612 792;" xml:space="preserve">
<style type="text/css">
	.st0{fill:#FFFFFF;}
</style>
<g>
	<g>
		<g>
			<path class="st0" d="M304.8,334.3c-9.9,0-17.9-8-17.9-17.9c0-9.9,8-17.9,17.9-17.9c9.9,0,17.9,8,17.9,17.9
				C322.7,326.2,314.7,334.3,304.8,334.3z M304.8,304.3c-6.7,0-12.1,5.4-12.1,12.1c0,6.7,5.4,12.1,12.1,12.1
				c6.7,0,12.1-5.4,12.1-12.1C316.9,309.7,311.4,304.3,304.8,304.3z"/>
		</g>
		<g>
			<g>
				<path class="st0" d="M354.4,334.6c-9.9,0-17.9-8-17.9-17.9c0-9.9,8-17.9,17.9-17.9c9.9,0,17.9,8,17.9,17.9
					C372.3,326.6,364.2,334.6,354.4,334.6z M354.4,304.7c-6.7,0-12.1,5.4-12.1,12.1c0,6.7,5.4,12.1,12.1,12.1
					c6.7,0,12.1-5.4,12.1-12.1C366.5,310.1,361,304.7,354.4,304.7z"/>
				<path class="st0" d="M376.9,381.2c-1.1,0-2.2-0.1-3.2-0.4l-24.9-6.9c-1.5-0.4-2.5-2-2-3.6c0.4-1.5,2-2.4,3.6-2l24.9,6.9
					c1.5,0.4,3.1,0.3,4.5-0.4c2.7-1.4,4-4.4,3.2-7.3l-0.9-3.2c-1.3-3.9-4.4-13.9-4.5-14.3c-0.5-1.5,0.4-3.2,1.9-3.6
					c1.5-0.5,3.2,0.4,3.6,1.9c0,0.1,3.2,10.5,4.5,14.3c0,0,0,0.1,0,0.1l0.9,3.2c1.6,5.6-1,11.5-6.1,14.1
					C380.7,380.8,378.8,381.2,376.9,381.2z"/>
				<path class="st0" d="M368.6,342.7c-0.2,0-0.5,0-0.7-0.1l-5.2-1.4c-1.6-0.4-2.5-2-2.1-3.5c0.4-1.6,2-2.5,3.5-2.1l5.2,1.4
					c1.6,0.4,2.5,2,2.1,3.5C371.1,341.8,369.9,342.7,368.6,342.7z"/>
				<path class="st0" d="M330,382.7c-2,0-4.1-0.6-5.8-1.8c-3.6-2.5-5.2-7-4-11.2l2-7.1c0,0,0-0.1,0-0.1c0.9-2.7,1.8-5.5,2.6-8.3
					c0.3-1.1,0.7-2.2,1-3.3c2.1-6.9,7.6-12.1,14.6-13.9l5.2-1.4c1.6-0.4,3.1,0.5,3.5,2.1c0.4,1.6-0.5,3.1-2.1,3.5l-5.2,1.4
					c-5,1.3-9,5.1-10.5,10c-0.3,1.1-0.7,2.2-1,3.3c-0.8,2.7-1.7,5.6-2.6,8.3l-2,7c-0.5,1.8,0.2,3.8,1.7,4.8c1.3,0.9,3,1,4.5,0.3
					l32.8-16c-3.3-1.8-7.1-2.2-10.7-1.2l-16.7,4.7c-1.5,0.4-3.1-0.5-3.6-2c-0.4-1.5,0.5-3.1,2-3.6l16.7-4.7c6-1.7,12.5-0.5,17.5,3.3
					l2.2,1.7c0.8,0.6,1.2,1.6,1.1,2.6c-0.1,1-0.7,1.9-1.6,2.3l-37.2,18.1C333.1,382.3,331.5,382.7,330,382.7z"/>
			</g>
		</g>
		<path class="st0" d="M316.6,338.8c-1.2,0-2.4-0.8-2.8-2c-0.5-1.5,0.3-3.2,1.8-3.7l26.8-8.9c1.5-0.5,3.2,0.3,3.7,1.8
			c0.5,1.5-0.3,3.2-1.8,3.7l-26.8,8.9C317.2,338.7,316.9,338.8,316.6,338.8z"/>
		<path class="st0" d="M376.5,352.6c-1,0-2.1-0.2-3.1-0.5c-3.6-1.3-6-4.7-6-8.5v-5c0-1.6,1.3-2.9,2.9-2.9c1.6,0,2.9,1.3,2.9,2.9v5
			c0,1.4,0.9,2.6,2.1,3c0.9,0.3,1.9,0.2,2.7-0.2c0.8-0.5,1.4-1.2,1.6-2.2l0.5-2.2c0.6-3.1-0.8-6.3-3.5-7.9l-10.3-6.2
			c-1.4-0.8-1.8-2.6-1-4c0.8-1.4,2.6-1.8,4-1l10.3,6.2c4.8,2.9,7.4,8.5,6.2,14.1l-0.5,2.2c-0.5,2.6-2.1,4.8-4.4,6.1
			C379.6,352.2,378.1,352.6,376.5,352.6z"/>
	</g>
	<g>
		<g>
			<g>
				<path class="st0" d="M255.6,334.6c-9.9,0-17.9-8-17.9-17.9c0-9.9,8-17.9,17.9-17.9c9.9,0,17.9,8,17.9,17.9
					C273.5,326.6,265.5,334.6,255.6,334.6z M255.6,304.7c-6.7,0-12.1,5.4-12.1,12.1c0,6.7,5.4,12.1,12.1,12.1
					c6.7,0,12.1-5.4,12.1-12.1C267.7,310.1,262.3,304.7,255.6,304.7z"/>
				<path class="st0" d="M233.1,381.2c-1.9,0-3.7-0.4-5.4-1.3c-5.2-2.6-7.7-8.5-6.1-14.1l0.9-3.2c0,0,0-0.1,0-0.1
					c1.3-3.8,4.5-14.2,4.5-14.3c0.5-1.5,2.1-2.4,3.6-1.9c1.5,0.5,2.4,2.1,1.9,3.6c-0.1,0.4-3.2,10.5-4.5,14.3l-0.9,3.2
					c-0.8,2.9,0.5,6,3.2,7.3c1.4,0.7,3,0.9,4.5,0.4l24.9-6.9c1.5-0.4,3.1,0.5,3.6,2c0.4,1.5-0.5,3.1-2,3.6l-24.9,6.9
					C235.2,381.1,234.1,381.2,233.1,381.2z"/>
				<path class="st0" d="M241.4,342.7c-1.3,0-2.5-0.9-2.8-2.2c-0.4-1.6,0.5-3.1,2.1-3.5l5.2-1.4c1.6-0.4,3.1,0.5,3.5,2.1
					c0.4,1.6-0.5,3.1-2.1,3.5l-5.2,1.4C241.9,342.7,241.7,342.7,241.4,342.7z"/>
				<path class="st0" d="M280,382.7c-1.5,0-3.1-0.3-4.5-1l-37.2-18.1c-0.9-0.4-1.5-1.3-1.6-2.3c-0.1-1,0.3-2,1.1-2.6l2.2-1.7
					c5-3.7,11.5-5,17.5-3.3l16.7,4.7c1.5,0.4,2.4,2,2,3.6c-0.4,1.5-2,2.4-3.6,2l-16.7-4.7c-3.6-1-7.5-0.6-10.7,1.2l32.8,16
					c1.4,0.7,3.1,0.6,4.5-0.3c1.6-1.1,2.3-3,1.7-4.8l-2-7c-0.9-2.8-1.8-5.6-2.6-8.3c-0.3-1.1-0.7-2.2-1-3.3c-1.5-5-5.5-8.7-10.5-10
					l-5.2-1.4c-1.6-0.4-2.5-2-2.1-3.5c0.4-1.6,2-2.5,3.5-2.1l5.2,1.4c7,1.8,12.5,7,14.6,13.9c0.3,1.1,0.7,2.2,1,3.3
					c0.8,2.7,1.7,5.5,2.6,8.3c0,0,0,0.1,0,0.1l2,7.1c1.2,4.2-0.4,8.7-4,11.2C284.1,382.1,282,382.7,280,382.7z"/>
			</g>
		</g>
		<path class="st0" d="M293.4,338.8c-0.3,0-0.6,0-0.9-0.1l-26.8-8.9c-1.5-0.5-2.3-2.1-1.8-3.7c0.5-1.5,2.1-2.3,3.7-1.8l26.8,8.9
			c1.5,0.5,2.3,2.1,1.8,3.7C295.7,338,294.6,338.8,293.4,338.8z"/>
		<path class="st0" d="M233.5,352.6c-1.5,0-3.1-0.4-4.4-1.2c-2.3-1.3-3.9-3.5-4.4-6.1l-0.5-2.2c-1.1-5.5,1.4-11.2,6.2-14.1l10.3-6.2
			c1.4-0.8,3.2-0.4,4,1c0.8,1.4,0.4,3.2-1,4l-10.3,6.2c-2.7,1.6-4.1,4.8-3.5,7.9l0.5,2.2c0.2,0.9,0.8,1.7,1.6,2.2
			c0.8,0.5,1.8,0.5,2.7,0.2c1.3-0.5,2.1-1.7,2.1-3v-5c0-1.6,1.3-2.9,2.9-2.9c1.6,0,2.9,1.3,2.9,2.9v5c0,3.8-2.4,7.2-6,8.5
			C235.5,352.5,234.5,352.6,233.5,352.6z"/>
	</g>
</g>
</svg>
