<?xml version="1.0" encoding="utf-8"?>
<!-- Generator: Adobe Illustrator 22.0.1, SVG Export Plug-In . SVG Version: 6.00 Build 0)  -->
<svg version="1.1" id="Layer_1" xmlns="http://www.w3.org/2000/svg" xmlns:xlink="http://www.w3.org/1999/xlink" x="0px" y="0px"
	 viewBox="0 0 612 792" style="enable-background:new 0 0 612 792;" xml:space="preserve">
<style type="text/css">
	.st0{fill:none;}
	.st1{fill:#FFFFFF;}
</style>
<g>
	<path class="st0" d="M373.2,407.8c1.3-2.4,1.3-4.8-0.2-7.1c-0.9-1.5-2.2-2.2-3.9-2.2c-4.7,0-12.5,5.7-15.6,18
		C361.9,416.9,370.3,413.1,373.2,407.8z"/>
	<path class="st0" d="M330.8,398.5c-1.7,0-3,0.7-3.9,2.2c-1.4,2.3-1.5,4.7-0.2,7.1c2.9,5.3,11.4,9.1,19.7,8.7
		C343.4,404.3,335.6,398.5,330.8,398.5z"/>
	<rect x="307" y="425" class="st1" width="32" height="18"/>
	<rect x="360" y="425" class="st1" width="32" height="18"/>
	<rect x="312" y="447" class="st1" width="27" height="45"/>
	<rect x="360" y="447" class="st1" width="27" height="45"/>
	<path class="st1" d="M347.3,455.7l5.4-2.6c-6.6-13.8-3.9-24.2-1.9-29.1c0.3-0.6,0.5-1.1,0.7-1.6c1,0.1,2,0.2,3,0.2
		c10.2,0,20-4.9,23.9-11.8c2.4-4.3,2.3-9-0.3-13.2c-2-3.3-5.2-5-9-5c-8.2,0-15.2,7.3-19.2,16.2c-4-9-10.9-16.2-19.2-16.2
		c-3.8,0-7,1.8-9,5c-2.6,4.2-2.7,8.9-0.3,13.2c3.8,6.9,13.4,11.7,23.4,11.8c-0.2,0.4-0.3,0.9-0.5,1.4
		C342.2,430.6,340.6,441.8,347.3,455.7z M369.2,398.5c1.7,0,3,0.7,3.9,2.2c1.4,2.3,1.5,4.7,0.2,7.1c-2.9,5.3-11.4,9.1-19.7,8.7
		C356.6,404.3,364.4,398.5,369.2,398.5z M326.8,407.8c-1.3-2.4-1.3-4.8,0.2-7.1c0.9-1.5,2.2-2.2,3.9-2.2c4.7,0,12.5,5.7,15.6,18
		C338.1,416.9,329.7,413.1,326.8,407.8z"/>
</g>
</svg>
