<?xml version="1.0" encoding="utf-8"?>
<!-- Generator: Adobe Illustrator 22.0.1, SVG Export Plug-In . SVG Version: 6.00 Build 0)  -->
<svg version="1.1" id="Layer_1" xmlns="http://www.w3.org/2000/svg" xmlns:xlink="http://www.w3.org/1999/xlink" x="0px" y="0px"
	 viewBox="0 0 612 792" style="enable-background:new 0 0 612 792;" xml:space="preserve">
<style type="text/css">
	.st0{fill-rule:evenodd;clip-rule:evenodd;fill:#FFFFFF;}
	.st1{fill-rule:evenodd;clip-rule:evenodd;fill:#5145B2;}
	.st2{fill-rule:evenodd;clip-rule:evenodd;fill:none;stroke:#5145B2;stroke-width:2.88;stroke-miterlimit:22.9256;}
</style>
<path class="st0" d="M305.7,385.8h88.4c7.2,0,13,5.9,13,13v65.2c0,7.2-5.9,13-13,13h-88.4c-7.2,0-13-5.9-13-13v-65.2
	C292.7,391.7,298.5,385.8,305.7,385.8z"/>
<path class="st1" d="M306.9,392.9h85.9c3.9,0,7.2,3.2,7.2,7.2v62.7c0,3.9-3.2,7.2-7.2,7.2h-85.9c-3.9,0-7.2-3.2-7.2-7.2v-62.7
	C299.8,396.1,303,392.9,306.9,392.9z"/>
<path class="st0" d="M307.2,394.4h85.3c3.2,0,5.9,2.6,5.9,5.9v62.3c0,3.2-2.6,5.9-5.9,5.9h-85.3c-3.2,0-5.9-2.6-5.9-5.9v-62.3
	C301.4,397.1,304,394.4,307.2,394.4z"/>
<g>
	<path class="st2" d="M365.2,414.9h44c2.6,0,4.7,2.1,4.7,4.7v23.7c0,2.6-2.1,4.7-4.7,4.7h-44c-2.6,0-4.7-2.1-4.7-4.7v-23.7
		C360.5,417,362.6,414.9,365.2,414.9z"/>
	<path class="st0" d="M365.2,414.9h44c2.6,0,4.7,2.1,4.7,4.7v23.7c0,2.6-2.1,4.7-4.7,4.7h-44c-2.6,0-4.7-2.1-4.7-4.7v-23.7
		C360.5,417,362.6,414.9,365.2,414.9z"/>
</g>
<path class="st1" d="M376.9,441.2c5.3,0,9.7-4.4,9.7-9.7s-4.4-9.7-9.7-9.7c-5.3,0-9.7,4.4-9.7,9.7S371.6,441.2,376.9,441.2z"/>
</svg>
